<svg id="visual" viewBox="0 0 900 600" width="900" height="600" xmlns="http://www.w3.org/2000/svg" xmlns:xlink="http://www.w3.org/1999/xlink" version="1.1"><path d="M0 43L13.7 40C27.3 37 54.7 31 82 35C109.3 39 136.7 53 163.8 57C191 61 218 55 245.2 47C272.3 39 299.7 29 327 30C354.3 31 381.7 43 409 52C436.3 61 463.7 67 491 70C518.3 73 545.7 73 573 66C600.3 59 627.7 45 654.8 46C682 47 709 63 736.2 68C763.3 73 790.7 67 818 64C845.3 61 872.7 61 886.3 61L900 61L900 0L886.3 0C872.7 0 845.3 0 818 0C790.7 0 763.3 0 736.2 0C709 0 682 0 654.8 0C627.7 0 600.3 0 573 0C545.7 0 518.3 0 491 0C463.7 0 436.3 0 409 0C381.7 0 354.3 0 327 0C299.7 0 272.3 0 245.2 0C218 0 191 0 163.8 0C136.7 0 109.3 0 82 0C54.7 0 27.3 0 13.7 0L0 0Z" fill="#8e78f9"></path><path d="M0 133L13.7 119C27.3 105 54.7 77 82 74C109.3 71 136.7 93 163.8 109C191 125 218 135 245.2 123C272.3 111 299.7 77 327 77C354.3 77 381.7 111 409 122C436.3 133 463.7 121 491 124C518.3 127 545.7 145 573 144C600.3 143 627.7 123 654.8 113C682 103 709 103 736.2 111C763.3 119 790.7 135 818 141C845.3 147 872.7 143 886.3 141L900 139L900 59L886.3 59C872.7 59 845.3 59 818 62C790.7 65 763.3 71 736.2 66C709 61 682 45 654.8 44C627.7 43 600.3 57 573 64C545.7 71 518.3 71 491 68C463.7 65 436.3 59 409 50C381.7 41 354.3 29 327 28C299.7 27 272.3 37 245.2 45C218 53 191 59 163.8 55C136.7 51 109.3 37 82 33C54.7 29 27.3 35 13.7 38L0 41Z" fill="#7c64f6"></path><path d="M0 259L13.7 237C27.3 215 54.7 171 82 174C109.3 177 136.7 227 163.8 252C191 277 218 277 245.2 258C272.3 239 299.7 201 327 196C354.3 191 381.7 219 409 240C436.3 261 463.7 275 491 280C518.3 285 545.7 281 573 284C600.3 287 627.7 297 654.8 296C682 295 709 283 736.2 271C763.3 259 790.7 247 818 237C845.3 227 872.7 219 886.3 215L900 211L900 137L886.3 139C872.7 141 845.3 145 818 139C790.7 133 763.3 117 736.2 109C709 101 682 101 654.8 111C627.7 121 600.3 141 573 142C545.7 143 518.3 125 491 122C463.7 119 436.3 131 409 120C381.7 109 354.3 75 327 75C299.7 75 272.3 109 245.2 121C218 133 191 123 163.8 107C136.7 91 109.3 69 82 72C54.7 75 27.3 103 13.7 117L0 131Z" fill="#684ff3"></path><path d="M0 343L13.7 330C27.3 317 54.7 291 82 291C109.3 291 136.7 317 163.8 338C191 359 218 375 245.2 353C272.3 331 299.7 271 327 267C354.3 263 381.7 315 409 341C436.3 367 463.7 367 491 371C518.3 375 545.7 383 573 379C600.3 375 627.7 359 654.8 351C682 343 709 343 736.2 345C763.3 347 790.7 351 818 336C845.3 321 872.7 287 886.3 270L900 253L900 209L886.3 213C872.7 217 845.3 225 818 235C790.7 245 763.3 257 736.2 269C709 281 682 293 654.8 294C627.7 295 600.3 285 573 282C545.7 279 518.3 283 491 278C463.7 273 436.3 259 409 238C381.7 217 354.3 189 327 194C299.7 199 272.3 237 245.2 256C218 275 191 275 163.8 250C136.7 225 109.3 175 82 172C54.7 169 27.3 213 13.7 235L0 257Z" fill="#5239ef"></path><path d="M0 457L13.7 455C27.3 453 54.7 449 82 451C109.3 453 136.7 461 163.8 479C191 497 218 525 245.2 523C272.3 521 299.7 489 327 484C354.3 479 381.7 501 409 504C436.3 507 463.7 491 491 487C518.3 483 545.7 491 573 493C600.3 495 627.7 491 654.8 482C682 473 709 459 736.2 461C763.3 463 790.7 481 818 484C845.3 487 872.7 475 886.3 469L900 463L900 251L886.3 268C872.7 285 845.3 319 818 334C790.7 349 763.3 345 736.2 343C709 341 682 341 654.8 349C627.7 357 600.3 373 573 377C545.7 381 518.3 373 491 369C463.7 365 436.3 365 409 339C381.7 313 354.3 261 327 265C299.7 269 272.3 329 245.2 351C218 373 191 357 163.8 336C136.7 315 109.3 289 82 289C54.7 289 27.3 315 13.7 328L0 341Z" fill="#4933da"></path><path d="M0 517L13.7 510C27.3 503 54.7 489 82 490C109.3 491 136.7 507 163.8 523C191 539 218 555 245.2 550C272.3 545 299.7 519 327 518C354.3 517 381.7 541 409 545C436.3 549 463.7 533 491 529C518.3 525 545.7 533 573 537C600.3 541 627.7 541 654.8 537C682 533 709 525 736.2 524C763.3 523 790.7 529 818 528C845.3 527 872.7 519 886.3 515L900 511L900 461L886.3 467C872.7 473 845.3 485 818 482C790.7 479 763.3 461 736.2 459C709 457 682 471 654.8 480C627.7 489 600.3 493 573 491C545.7 489 518.3 481 491 485C463.7 489 436.3 505 409 502C381.7 499 354.3 477 327 482C299.7 487 272.3 519 245.2 521C218 523 191 495 163.8 477C136.7 459 109.3 451 82 449C54.7 447 27.3 451 13.7 453L0 455Z" fill="#412dc6"></path><path d="M0 601L13.7 601C27.3 601 54.7 601 82 601C109.3 601 136.7 601 163.8 601C191 601 218 601 245.2 601C272.3 601 299.7 601 327 601C354.3 601 381.7 601 409 601C436.3 601 463.7 601 491 601C518.3 601 545.7 601 573 601C600.3 601 627.7 601 654.8 601C682 601 709 601 736.2 601C763.3 601 790.7 601 818 601C845.3 601 872.7 601 886.3 601L900 601L900 509L886.3 513C872.7 517 845.3 525 818 526C790.7 527 763.3 521 736.2 522C709 523 682 531 654.8 535C627.7 539 600.3 539 573 535C545.7 531 518.3 523 491 527C463.7 531 436.3 547 409 543C381.7 539 354.3 515 327 516C299.7 517 272.3 543 245.2 548C218 553 191 537 163.8 521C136.7 505 109.3 489 82 488C54.7 487 27.3 501 13.7 508L0 515Z" fill="#3927b2"></path></svg>